<svg xmlns="http://www.w3.org/2000/svg" width="54" height="54" viewBox="0 0 54 54">
  <g id="Сгруппировать_1816" data-name="Сгруппировать 1816" transform="translate(-2347 1500)">
    <g id="google-plus" transform="translate(2358.854 -1482.219)">
      <g id="Сгруппировать_1812" data-name="Сгруппировать 1812" transform="translate(20.736 3.77)">
        <g id="Сгруппировать_1811" data-name="Сгруппировать 1811">
          <path id="Контур_4536" data-name="Контур 4536" d="M357.655,163.77V160H355.77v3.77H352v1.885h3.77v3.77h1.885v-3.77h3.77V163.77Z" transform="translate(-352 -160)" fill="#414141"/>
        </g>
      </g>
      <g id="Сгруппировать_1814" data-name="Сгруппировать 1814" transform="translate(0 0)">
        <g id="Сгруппировать_1813" data-name="Сгруппировать 1813">
          <path id="Контур_4537" data-name="Контур 4537" d="M9.425,103.54v3.77h5.333a5.656,5.656,0,1,1-5.333-7.54,5.571,5.571,0,0,1,3.663,1.365l2.477-2.843A9.341,9.341,0,0,0,9.425,96a9.425,9.425,0,1,0,9.425,9.425V103.54Z" transform="translate(0 -96)" fill="#414141"/>
        </g>
      </g>
    </g>
    <g id="Эллипс_195" data-name="Эллипс 195" transform="translate(2347 -1500)" fill="none" stroke="#707070" stroke-width="1">
      <circle cx="27" cy="27" r="27" stroke="none"/>
      <circle cx="27" cy="27" r="26.5" fill="none"/>
    </g>
  </g>
</svg>
