<svg xmlns="http://www.w3.org/2000/svg" width="54" height="54" viewBox="0 0 54 54">
  <g id="Сгруппировать_1824" data-name="Сгруппировать 1824" transform="translate(4690 -1406)">
    <g id="linkedin-logo" transform="translate(-4672.529 1423.471)">
      <g id="Сгруппировать_1810" data-name="Сгруппировать 1810" transform="translate(0 0)">
        <path id="Контур_4534" data-name="Контур 4534" d="M2.317,1.217A2.316,2.316,0,1,0,4.631,3.532,2.317,2.317,0,0,0,2.317,1.217Z" transform="translate(0 -1.217)" fill="#414141"/>
        <rect id="Прямоугольник_1081" data-name="Прямоугольник 1081" width="3.995" height="12.852" transform="translate(0.319 6.389)" fill="#414141"/>
        <path id="Контур_4535" data-name="Контур 4535" d="M508.374,446.913a4.2,4.2,0,0,0-3.779,2.076h-.053v-1.756H500.71v12.852H504.7v-6.358c0-1.676.319-3.3,2.4-3.3,2.048,0,2.076,1.917,2.076,3.407v6.25h3.992v-7.049C513.166,449.574,512.419,446.913,508.374,446.913Z" transform="translate(-493.892 -440.844)" fill="#414141"/>
      </g>
    </g>
    <g id="Эллипс_194" data-name="Эллипс 194" transform="translate(-4690 1406)" fill="none" stroke="#707070" stroke-width="1">
      <circle cx="27" cy="27" r="27" stroke="none"/>
      <circle cx="27" cy="27" r="26.5" fill="none"/>
    </g>
  </g>
</svg>
