<svg xmlns="http://www.w3.org/2000/svg" width="22.103" height="31.435" viewBox="0 0 22.103 31.435">
  <g id="home_1_" data-name="home (1)" transform="translate(-76)">
    <path id="Контур_4611" data-name="Контур 4611" d="M94.872,25.442a13.367,13.367,0,0,0-3.292-.988c.379-.392.766-.811,1.154-1.256a25.4,25.4,0,0,0,3.676-5.4A15.262,15.262,0,0,0,98.1,11.052a11.052,11.052,0,1,0-22.1,0A15.262,15.262,0,0,0,77.694,17.8a25.4,25.4,0,0,0,3.676,5.4c.388.445.775.864,1.154,1.256a13.367,13.367,0,0,0-3.292.988c-1.656.79-2,1.692-2,2.31,0,.782.541,1.894,3.117,2.753a24.628,24.628,0,0,0,13.413,0c2.576-.859,3.117-1.971,3.117-2.753,0-.618-.348-1.52-2-2.31ZM77.228,11.052a9.824,9.824,0,1,1,19.647,0c0,4.559-2.746,8.671-5.049,11.318a33.87,33.87,0,0,1-4.774,4.494,33.875,33.875,0,0,1-4.774-4.494c-2.3-2.647-5.049-6.759-5.049-11.318ZM93.37,29.34a23.438,23.438,0,0,1-12.636,0c-1.681-.56-2.278-1.206-2.278-1.588,0-.638,1.6-1.736,5.147-2.227.525.5,1.014.934,1.442,1.3-.651.225-1.063.558-1.063.929,0,.678,1.375,1.228,3.07,1.228s3.07-.55,3.07-1.228c0-.372-.412-.7-1.063-.929.427-.364.917-.8,1.442-1.3,3.547.491,5.147,1.589,5.147,2.227C95.647,28.134,95.051,28.78,93.37,29.34Z" fill="#061358"/>
    <path id="Контур_4612" data-name="Контур 4612" d="M133.191,48.6a8.6,8.6,0,1,0-8.6,8.6A8.605,8.605,0,0,0,133.191,48.6Zm-15.963,0a7.368,7.368,0,1,1,7.368,7.368A7.376,7.376,0,0,1,117.228,48.6Z" transform="translate(-37.544 -37.544)" fill="#061358"/>
    <path id="Контур_4613" data-name="Контур 4613" d="M162.753,109.21a.614.614,0,0,0,.614.614h2.456a.614.614,0,0,0,.614-.614v-3.07h1.228a.614.614,0,0,0,.408-1.073l-5.526-4.912a.614.614,0,0,0-.816,0l-5.526,4.912a.614.614,0,0,0,.408,1.073h1.228v3.07a.614.614,0,0,0,.614.614h2.456a.614.614,0,0,0,.614-.614v-1.842h1.228Zm-1.842-3.07a.614.614,0,0,0-.614.614V108.6h-1.228v-3.07a.614.614,0,0,0-.614-.614h-.227l3.911-3.476,3.911,3.476h-.227a.614.614,0,0,0-.614.614v3.07h-1.228v-1.842a.614.614,0,0,0-.614-.614Z" transform="translate(-75.087 -93.86)" fill="#061358"/>
  </g>
</svg>
