<svg id="alarm" xmlns="http://www.w3.org/2000/svg" width="22.597" height="27.618" viewBox="0 0 22.597 27.618">
  <g id="Сгруппировать_1478" data-name="Сгруппировать 1478" transform="translate(0)">
    <path id="Контур_774" data-name="Контур 774" d="M64.454,19.9c-.718-1.072-1.7-2.54-1.7-6.719V11.3a8.8,8.8,0,0,0-6.277-8.417v-.37a2.511,2.511,0,1,0-5.021,0v.37A8.8,8.8,0,0,0,45.177,11.3v1.883c0,4.179-.983,5.647-1.7,6.719a3.553,3.553,0,0,0-.809,2.069c0,2.046,4.266,2.764,7.725,3.012a3.74,3.74,0,0,0,7.147,0c3.459-.247,7.725-.965,7.725-3.012A3.553,3.553,0,0,0,64.454,19.9ZM52.709,2.511a1.255,1.255,0,0,1,2.511,0v.1a7.908,7.908,0,0,0-2.511,0v-.1Zm1.255,23.852a2.489,2.489,0,0,1-2.19-1.3c.889.038,1.662.048,2.19.048s1.3-.01,2.19-.048A2.489,2.489,0,0,1,53.964,26.363Zm0-2.511c-5.748,0-10.043-.994-10.043-1.883a2.389,2.389,0,0,1,.6-1.37c.761-1.138,1.914-2.857,1.914-7.418V11.3a7.532,7.532,0,0,1,15.064,0v1.883c0,4.561,1.152,6.28,1.914,7.418a2.389,2.389,0,0,1,.6,1.37C64.007,22.858,59.713,23.852,53.964,23.852Z" transform="translate(-42.666)" fill="#0062ff"/>
  </g>
</svg>
