<svg xmlns="http://www.w3.org/2000/svg" width="20.786" height="23.098" viewBox="0 0 20.786 23.098">
  <path id="Контур_773" data-name="Контур 773" d="M42.111,11.344h1.611a.661.661,0,0,0,.661-.661V9.072a.661.661,0,0,0-.661-.661H42.111a.661.661,0,0,0-.661.661v1.611A.661.661,0,0,0,42.111,11.344Zm.016-2.256h1.579v1.579H42.127Zm-.016,6.541h1.611a.661.661,0,0,0,.661-.661V13.358a.661.661,0,0,0-.661-.661H42.111a.661.661,0,0,0-.661.661v1.611A.661.661,0,0,0,42.111,15.63Zm.016-2.256h1.579v1.579H42.127Zm-4.614-2.03h1.611a.661.661,0,0,0,.661-.661V9.072a.661.661,0,0,0-.661-.661H37.513a.661.661,0,0,0-.661.661v1.611A.661.661,0,0,0,37.513,11.344Zm.016-2.256h1.579v1.579H37.529Zm-7.6,7.694H28.318a.661.661,0,0,0-.661.661v1.611a.661.661,0,0,0,.661.661h1.611a.661.661,0,0,0,.661-.661V17.443A.661.661,0,0,0,29.929,16.782Zm-.016,2.256H28.334V17.459h1.579Zm.016-10.626H28.318a.661.661,0,0,0-.661.661v1.611a.661.661,0,0,0,.661.661h1.611a.661.661,0,0,0,.661-.661V9.072A.661.661,0,0,0,29.929,8.412Zm-.016,2.256H28.334V9.088h1.579Zm7.6,4.862h1.611a.661.661,0,0,0,.661-.661V13.257a.661.661,0,0,0-.661-.661H37.513a.661.661,0,0,0-.661.661v1.611A.661.661,0,0,0,37.513,15.529Zm.016-2.256h1.579v1.579H37.529ZM44.719,1.546H43.272V1.029A1.03,1.03,0,0,0,42.243,0h-.155a1.03,1.03,0,0,0-1.029,1.029v.517H30.981V1.029A1.03,1.03,0,0,0,29.952,0H29.8a1.03,1.03,0,0,0-1.029,1.029v.517H27.321A1.7,1.7,0,0,0,25.627,3.24V21.406A1.694,1.694,0,0,0,27.319,23.1h17.4a1.694,1.694,0,0,0,1.692-1.692V3.24a1.7,1.7,0,0,0-1.694-1.694Zm-2.983-.517a.353.353,0,0,1,.352-.352h.155a.353.353,0,0,1,.352.352v.517h-.86Zm-12.291,0A.353.353,0,0,1,29.8.677h.155a.353.353,0,0,1,.352.352v.517h-.86V1.029ZM45.736,21.406a1.016,1.016,0,0,1-1.015,1.015h-17.4A1.016,1.016,0,0,1,26.3,21.406v0a1.685,1.685,0,0,0,1.017.34H41.039a1.683,1.683,0,0,0,1.2-.5l3.5-3.5Zm-3.844-.77a1.447,1.447,0,0,0,.041-.341V18.037a.773.773,0,0,1,.772-.772h2.258a1.447,1.447,0,0,0,.341-.041ZM45.736,6.381H31.319a.338.338,0,1,0,0,.677H45.736v8.757a.773.773,0,0,1-.772.772H42.705a1.451,1.451,0,0,0-1.449,1.449V20.3a.773.773,0,0,1-.772.772H27.321A1.018,1.018,0,0,1,26.3,20.05V7.058h3.662a.338.338,0,1,0,0-.677H26.3V3.24a1.018,1.018,0,0,1,1.017-1.017h1.447v.995A1.03,1.03,0,0,0,29.8,4.247a.338.338,0,1,0,0-.677.353.353,0,0,1-.352-.352V2.223H41.059v.995a1.03,1.03,0,0,0,1.029,1.029.338.338,0,1,0,0-.677.353.353,0,0,1-.352-.352V2.223h2.983A1.018,1.018,0,0,1,45.736,3.24ZM29.929,12.6H28.318a.661.661,0,0,0-.661.661v1.611a.661.661,0,0,0,.661.661h1.611a.661.661,0,0,0,.661-.661V13.257A.661.661,0,0,0,29.929,12.6Zm-.016,2.256H28.334V13.273h1.579Zm3-3.509h1.611a.661.661,0,0,0,.661-.661V9.072a.661.661,0,0,0-.661-.661H32.915a.661.661,0,0,0-.661.661v1.611A.661.661,0,0,0,32.915,11.344Zm.016-2.256H34.51v1.579H32.931Zm4.6,9.95a.338.338,0,0,0-.676.016.661.661,0,0,0,.661.661h1.611a.661.661,0,0,0,.661-.661V17.443a.661.661,0,0,0-.661-.661H37.513a.661.661,0,0,0-.661.661v.465a.338.338,0,1,0,.677,0v-.449h1.579v1.579Zm-4.613-3.509h1.611a.661.661,0,0,0,.661-.661V13.257a.661.661,0,0,0-.661-.661H32.915a.661.661,0,0,0-.661.661v1.611A.661.661,0,0,0,32.915,15.529Zm.016-2.256H34.51v1.579H32.931Zm-.016,6.441h1.611a.661.661,0,0,0,.661-.661V17.443a.661.661,0,0,0-.661-.661H32.915a.661.661,0,0,0-.661.661v1.611A.661.661,0,0,0,32.915,19.714Zm.016-2.256H34.51v1.579H32.931Z" transform="translate(-25.627 0)" fill="#061358"/>
</svg>
