<svg xmlns="http://www.w3.org/2000/svg" width="25.181" height="23.112" viewBox="0 0 25.181 23.112">
  <path id="Контур_677" data-name="Контур 677" d="M22.693,2.494,8.364,2.465A2.491,2.491,0,0,0,5.875,4.954V7.1l-3.387.007A2.491,2.491,0,0,0,0,9.6v8.872a2.491,2.491,0,0,0,2.489,2.488H5.036v4.2a.42.42,0,0,0,.73.282l4.073-4.48,6.978-.029a2.491,2.491,0,0,0,2.489-2.488V18.4l2.207,2.428a.42.42,0,0,0,.73-.282v-4.2h.449a2.491,2.491,0,0,0,2.489-2.488V4.983A2.491,2.491,0,0,0,22.693,2.494ZM18.466,18.442a1.651,1.651,0,0,1-1.651,1.649l-7.164.029a.42.42,0,0,0-.309.137L5.875,24.072V20.54a.42.42,0,0,0-.42-.42H2.489A1.651,1.651,0,0,1,.839,18.472V9.6A1.651,1.651,0,0,1,2.49,7.95L6.3,7.942h0l10.52-.022A1.651,1.651,0,0,1,18.466,9.57v8.873Zm5.875-4.587A1.651,1.651,0,0,1,22.692,15.5h-.869a.42.42,0,0,0-.42.42v3.531l-2.1-2.308V9.57a2.492,2.492,0,0,0-2.49-2.489L6.715,7.1V4.953A1.651,1.651,0,0,1,8.363,3.3l14.328.029h0a1.651,1.651,0,0,1,1.649,1.649v8.873Z" transform="translate(0 -2.465)" fill="#061358"/>
</svg>
