<svg xmlns="http://www.w3.org/2000/svg" xmlns:xlink="http://www.w3.org/1999/xlink" width="76" height="76" viewBox="0 0 76 76">
  <defs>
    <filter id="Ellipse_258" x="0" y="0" width="76" height="76" filterUnits="userSpaceOnUse">
      <feOffset input="SourceAlpha"/>
      <feGaussianBlur stdDeviation="3" result="blur"/>
      <feFlood flood-opacity="0.651"/>
      <feComposite operator="in" in2="blur"/>
      <feComposite in="SourceGraphic"/>
    </filter>
  </defs>
  <g id="Group_2169" data-name="Group 2169" transform="translate(-1026 -652)">
    <g id="Group_2164" data-name="Group 2164">
      <g id="Group_2163" data-name="Group 2163" transform="translate(134)">
        <g transform="matrix(1, 0, 0, 1, 892, 652)" filter="url(#Ellipse_258)">
          <circle id="Ellipse_258-2" data-name="Ellipse 258" cx="29" cy="29" r="29" transform="translate(9 9)" fill="#dbdcdc" opacity="0.3"/>
        </g>
      </g>
    </g>
    <g id="Group_2168" data-name="Group 2168" transform="translate(-8122.817 776.2)">
      <g id="Group_2166" data-name="Group 2166" transform="translate(9170 -99.514)">
        <g id="Group_2165" data-name="Group 2165">
          <path id="Path_4677" data-name="Path 4677" d="M28.73,57.537h-4.2a.7.7,0,0,1-.664-.479l-.443-1.329a3.5,3.5,0,0,0-3.324-2.4H13.541a3.5,3.5,0,0,0-3.323,2.4l-.443,1.33a.7.7,0,0,1-.666.479h-4.2A4.91,4.91,0,0,0,0,62.442V75.055A4.91,4.91,0,0,0,4.905,79.96H28.73a4.91,4.91,0,0,0,4.905-4.905V62.442A4.91,4.91,0,0,0,28.73,57.537Zm3.5,17.518a3.508,3.508,0,0,1-3.5,3.5H4.905a3.508,3.508,0,0,1-3.5-3.5V62.442a3.508,3.508,0,0,1,3.5-3.5h4.2A2.1,2.1,0,0,0,11.1,57.5l.444-1.331a2.1,2.1,0,0,1,1.993-1.437h6.553a2.1,2.1,0,0,1,1.994,1.438l.443,1.33a2.1,2.1,0,0,0,1.994,1.437h4.2a3.508,3.508,0,0,1,3.5,3.5V75.055Z" transform="translate(0 -53.333)" fill="#fff"/>
        </g>
      </g>
      <g id="Group_2167" data-name="Group 2167" transform="translate(9179.718 -91.478)">
        <path id="Path_4680" data-name="Path 4680" d="M261.5,10.9A6.839,6.839,0,0,0,256,0V.8a6.038,6.038,0,0,1,4.868,9.607l-.092-1.05-.8.07.21,2.395,2.395-.21-.07-.8Z" transform="translate(-249.162 0)" fill="#fff"/>
        <path id="Path_4681" data-name="Path 4681" d="M.8,74.324A5.991,5.991,0,0,1,1.97,70.753l.092,1.05.8-.07-.21-2.395-2.395.209.07.8,1.014-.089a6.839,6.839,0,0,0,5.5,10.9v-.8A6.036,6.036,0,0,1,.8,74.324Z" transform="translate(0 -67.486)" fill="#fff"/>
      </g>
    </g>
  </g>
</svg>
