<svg id="menu_2_" data-name="menu (2)" xmlns="http://www.w3.org/2000/svg" width="22.427" height="22.427" viewBox="0 0 22.427 22.427">
  <g id="Сгруппировать_1994" data-name="Сгруппировать 1994" transform="translate(0 0)">
    <g id="Сгруппировать_1993" data-name="Сгруппировать 1993" transform="translate(0 0)">
      <path id="Контур_4606" data-name="Контур 4606" d="M18.251,0H4.176A4.181,4.181,0,0,0,0,4.176V18.251a4.181,4.181,0,0,0,4.176,4.176H18.251a4.181,4.181,0,0,0,4.176-4.176V4.176A4.181,4.181,0,0,0,18.251,0Zm2.862,18.251a2.865,2.865,0,0,1-2.862,2.862H4.176a2.865,2.865,0,0,1-2.862-2.862V4.176A2.865,2.865,0,0,1,4.176,1.314H18.251a2.865,2.865,0,0,1,2.862,2.862Z" transform="translate(0 0)" fill="#7e7e7e"/>
    </g>
  </g>
  <g id="Сгруппировать_1996" data-name="Сгруппировать 1996" transform="translate(4.223 5.278)">
    <g id="Сгруппировать_1995" data-name="Сгруппировать 1995">
      <path id="Контур_4607" data-name="Контур 4607" d="M109.725,120.5H97.057a.657.657,0,1,0,0,1.314h12.668a.657.657,0,0,0,0-1.314Z" transform="translate(-96.4 -120.5)" fill="#7e7e7e"/>
    </g>
  </g>
  <g id="Сгруппировать_1998" data-name="Сгруппировать 1998" transform="translate(4.223 10.556)">
    <g id="Сгруппировать_1997" data-name="Сгруппировать 1997">
      <path id="Контур_4608" data-name="Контур 4608" d="M109.725,241H97.057a.657.657,0,0,0,0,1.314h12.668a.657.657,0,0,0,0-1.314Z" transform="translate(-96.4 -241)" fill="#7e7e7e"/>
    </g>
  </g>
  <g id="Сгруппировать_2000" data-name="Сгруппировать 2000" transform="translate(4.223 15.835)">
    <g id="Сгруппировать_1999" data-name="Сгруппировать 1999">
      <path id="Контур_4609" data-name="Контур 4609" d="M109.725,361.5H97.057a.657.657,0,0,0,0,1.314h12.668a.657.657,0,0,0,0-1.314Z" transform="translate(-96.4 -361.5)" fill="#7e7e7e"/>
    </g>
  </g>
</svg>
