<svg xmlns="http://www.w3.org/2000/svg" width="35.785" height="26.728" viewBox="0 0 35.785 26.728">
  <g id="Сгруппировать_2058" data-name="Сгруппировать 2058" transform="translate(-1141.107 -358.621)">
    <g id="live-streaming" transform="translate(1141.106 293.826)">
      <path id="Контур_4638" data-name="Контур 4638" d="M34.838,172.2a1.2,1.2,0,0,0-.6.174l-5.86,3.383v-3.306a1.225,1.225,0,0,0-1.223-1.223H7.976a3.3,3.3,0,0,0-5.794,2.154v4.232H.965a.965.965,0,0,0-.96,1.057,5.508,5.508,0,0,0,4.951,4.942v2.412H1.775A1.225,1.225,0,0,0,.552,187.25v.98a1.225,1.225,0,0,0,1.223,1.223H5.383a.524.524,0,0,0,0-1.048H1.775a.177.177,0,0,1-.175-.175v-.98a.177.177,0,0,1,.175-.175h7.41a.177.177,0,0,1,.175.175v.98a.177.177,0,0,1-.175.175H7.829a.524.524,0,0,0,0,1.048H9.185a1.224,1.224,0,0,0,1.219-1.145H27.153a1.225,1.225,0,0,0,1.223-1.223v-3.306l5.86,3.383a1.2,1.2,0,0,0,.6.174h0a.9.9,0,0,0,.715-.339,1.148,1.148,0,0,0,.233-.729v-13a.969.969,0,0,0-.948-1.068ZM3.23,173.384a2.25,2.25,0,0,1,4.5,0v2.955H3.23Zm0,4h4.5v.753a2.25,2.25,0,1,1-4.5,0v-.753Zm-.75,4.04a4.443,4.443,0,0,1-1.422-2.763H2.224a3.3,3.3,0,0,0,6.513,0H9.9a4.45,4.45,0,0,1-7.421,2.763Zm24.848,5.659a.177.177,0,0,1-.175.175H10.408v-.01a1.225,1.225,0,0,0-1.223-1.223H6v-2.412a5.508,5.508,0,0,0,4.951-4.942.965.965,0,0,0-.96-1.058H8.779v-4.232a3.284,3.284,0,0,0-.191-1.105H27.153a.177.177,0,0,1,.175.175Zm7.409-.844-2.485-1.435V182.59a.524.524,0,1,0-1.048,0V184.2l-2.827-1.632v-5.6l2.827-1.632v4.806a.524.524,0,1,0,1.048,0v-5.411l2.485-1.435Z" transform="translate(0 -97.931)" fill="#e60c0c"/>
      <path id="Контур_4639" data-name="Контур 4639" d="M196.585,246.515l-6.4-3.657a1.06,1.06,0,0,0-.528-.15.884.884,0,0,0-.863.957v7.3a.884.884,0,0,0,.863.957,1.06,1.06,0,0,0,.528-.15l6.4-3.657a.882.882,0,0,0,0-1.6Zm-6.743,4.249v-6.894l6.034,3.447Z" transform="translate(-175.597 -165.478)" fill="#e60c0c"/>
      <path id="Контур_4640" data-name="Контур 4640" d="M63.29,204.112H61.969a.524.524,0,1,0,0,1.048H63.29a.524.524,0,0,0,0-1.048Z" transform="translate(-57.15 -129.58)" fill="#e60c0c"/>
      <path id="Контур_4641" data-name="Контур 4641" d="M63.29,231.835H61.969a.524.524,0,0,0,0,1.048H63.29a.524.524,0,0,0,0-1.048Z" transform="translate(-57.15 -155.365)" fill="#e60c0c"/>
      <path id="Контур_4642" data-name="Контур 4642" d="M233.589,153.894a2.107,2.107,0,0,0-1.546.68.524.524,0,1,0,.771.71,1.048,1.048,0,0,1,1.548,0,.524.524,0,1,0,.771-.71A2.107,2.107,0,0,0,233.589,153.894Z" transform="translate(-215.695 -82.872)" fill="#e60c0c"/>
      <path id="Контур_4643" data-name="Контур 4643" d="M215.561,126.256a.524.524,0,1,0,.771-.71,4.171,4.171,0,0,0-6.146,0,.524.524,0,1,0,.771.71,3.123,3.123,0,0,1,4.6,0Z" transform="translate(-195.366 -55.248)" fill="#e60c0c"/>
      <path id="Контур_4644" data-name="Контур 4644" d="M193.574,95.582a.524.524,0,1,0,.127-1.041,6.25,6.25,0,0,0-5.363,1.976.524.524,0,1,0,.771.71,5.2,5.2,0,0,1,4.464-1.646Z" transform="translate(-175.046 -27.624)" fill="#e60c0c"/>
      <path id="Контур_4645" data-name="Контур 4645" d="M292.846,108.589a.524.524,0,0,0,.771-.71,6.3,6.3,0,0,0-1.319-1.09.524.524,0,0,0-.552.891A5.244,5.244,0,0,1,292.846,108.589Z" transform="translate(-271.124 -38.986)" fill="#e60c0c"/>
      <path id="Контур_4646" data-name="Контур 4646" d="M166.87,68.368a.523.523,0,0,0,.386-.169,7.268,7.268,0,0,1,10.713,0,.524.524,0,1,0,.771-.71,8.317,8.317,0,0,0-12.255,0,.524.524,0,0,0,.386.879Z" transform="translate(-154.718)" fill="#e60c0c"/>
    </g>
  </g>
</svg>
