<svg id="earth" xmlns="http://www.w3.org/2000/svg" width="19.279" height="24" viewBox="0 0 19.279 24">
  <path id="Контур_4554" data-name="Контур 4554" d="M201.033,471a.289.289,0,1,1,0,.578h-.176a.289.289,0,1,1,0-.578Z" transform="translate(-189.001 -448.639)" fill="#a2aebc"/>
  <path id="Контур_4555" data-name="Контур 4555" d="M227.34,471.578h-3.462a.289.289,0,1,1,0-.578h3.462a.289.289,0,0,1,0,.578Z" transform="translate(-216.417 -448.639)" fill="#a2aebc"/>
  <path id="Контур_4556" data-name="Контур 4556" d="M64.2,9.059V8.4h-.685a.265.265,0,0,1-.279-.27V7.289A.281.281,0,0,1,63.515,7h1.6a10.353,10.353,0,0,1,.192,20.7v.741h2.645a1.818,1.818,0,0,1,1.837,1.808v.457A.294.294,0,0,1,69.5,31H59.52a.284.284,0,0,1-.283-.289v-.457a1.809,1.809,0,0,1,1.825-1.808h2.7v-.723h-.251a.3.3,0,0,1-.279-.305v-.839a.292.292,0,0,1,.279-.3H64.2v-.629a8.3,8.3,0,0,1,0-16.59Zm-5.22,2.909a7.6,7.6,0,0,0,1.459,1.182,7.9,7.9,0,0,1,2.589-3.376,7.716,7.716,0,0,0-4.048,2.193Zm5.22,5.1V14.886a8.3,8.3,0,0,1-3.465-.895,10.536,10.536,0,0,0-.506,3.081Zm-3.971.578a10.492,10.492,0,0,0,.506,3.074,8.308,8.308,0,0,1,3.465-.9V17.651Zm.7-4.211a7.684,7.684,0,0,0,3.273.867V9.71a7.276,7.276,0,0,0-3.272,3.73Zm.134,15.584a1.23,1.23,0,0,0-1.247,1.23v.168h9.4v-.168a1.239,1.239,0,0,0-1.258-1.23Zm3.669-.578v-.723h-.386v.723Zm.386-20.627a9.518,9.518,0,0,1,0,19.036h-1.3v.289h1.3a9.783,9.783,0,0,0,0-19.566h-1.3v.241Zm3.675,5.9a11.1,11.1,0,0,1,.573,3.352h2.859a7.642,7.642,0,0,0-1.781-4.647A8.14,8.14,0,0,1,68.792,13.72Zm1.264-1.732a7.717,7.717,0,0,0-4.068-2.214,7.909,7.909,0,0,1,2.6,3.393,7.566,7.566,0,0,0,1.472-1.179Zm-.691,5.662A11.062,11.062,0,0,1,68.792,21a8.14,8.14,0,0,1,1.651,1.3,7.74,7.74,0,0,0,1.781-4.641Zm-.781,3.889a7.91,7.91,0,0,1-2.6,3.393,7.716,7.716,0,0,0,4.068-2.214A7.565,7.565,0,0,0,68.584,21.54Zm-.527-.286a7.8,7.8,0,0,0-3.278-.854V25A7.092,7.092,0,0,0,68.056,21.254Zm.21-.543a10.461,10.461,0,0,0,.52-3.06H64.779v2.171A8.319,8.319,0,0,1,68.267,20.711Zm.52-3.639A10.515,10.515,0,0,0,68.267,14a8.312,8.312,0,0,1-3.488.882v2.187Zm-.731-3.619A7.093,7.093,0,0,0,64.779,9.71v4.6a7.8,7.8,0,0,0,3.278-.854Zm4.734,3.9a8.284,8.284,0,0,1-8.012,8.3v.629h.338a8.94,8.94,0,0,0,0-17.88h-.338v.661a8.284,8.284,0,0,1,8.011,8.295ZM64.2,20.4a7.684,7.684,0,0,0-3.272.867A7.278,7.278,0,0,0,64.2,25Zm-1.172,4.533a7.905,7.905,0,0,1-2.589-3.376,7.6,7.6,0,0,0-1.459,1.182A7.716,7.716,0,0,0,63.028,24.933Zm-4.437-2.617a8.186,8.186,0,0,1,1.639-1.3,11.075,11.075,0,0,1-.579-3.36H56.792A7.655,7.655,0,0,0,58.591,22.316Zm-1.8-5.243h2.859A11.127,11.127,0,0,1,60.23,13.7a8.167,8.167,0,0,1-1.639-1.3A7.667,7.667,0,0,0,56.792,17.072Z" transform="translate(-56.189 -7)" fill="#a2aebc"/>
</svg>
