<svg id="earth" xmlns="http://www.w3.org/2000/svg" width="25.761" height="31" viewBox="0 0 25.761 31">
  <path id="Контур_4554" data-name="Контур 4554" d="M201.068,471a.311.311,0,0,1,0,.622h-.189a.311.311,0,1,1,0-.622Z" transform="translate(-184.989 -441.762)" fill="#061358"/>
  <path id="Контур_4555" data-name="Контур 4555" d="M227.622,471.622H223.9a.311.311,0,0,1,0-.622h3.723a.311.311,0,0,1,0,.622Z" transform="translate(-213.51 -441.762)" fill="#061358"/>
  <path id="Контур_4556" data-name="Контур 4556" d="M66.894,9.659V8.805h-.915a.361.361,0,0,1-.265-.1.336.336,0,0,1-.108-.253V7.373a.356.356,0,0,1,.1-.263A.381.381,0,0,1,65.978,7h2.14A13.623,13.623,0,0,1,81.95,20.373a13.6,13.6,0,0,1-13.575,13.37V34.7h3.535a2.392,2.392,0,0,1,2.454,2.336v.59A.386.386,0,0,1,73.97,38H60.639a.386.386,0,0,1-.27-.11.361.361,0,0,1-.108-.263v-.59a2.3,2.3,0,0,1,.716-1.659A2.461,2.461,0,0,1,62.7,34.7h3.614v-.934h-.336a.386.386,0,0,1-.373-.394V32.29a.383.383,0,0,1,.373-.39h.915v-.812a10.917,10.917,0,0,1-10.7-10.714A10.917,10.917,0,0,1,66.894,9.659Zm-6.975,3.757a10.093,10.093,0,0,0,1.95,1.527,10.26,10.26,0,0,1,3.46-4.36,10.419,10.419,0,0,0-5.409,2.833Zm6.975,6.594V17.186a11.394,11.394,0,0,1-4.63-1.156,13.2,13.2,0,0,0-.677,3.98Zm-5.306.747a13.142,13.142,0,0,0,.676,3.97,11.4,11.4,0,0,1,4.63-1.166v-2.8Zm.934-5.439a10.546,10.546,0,0,0,4.373,1.12V10.5a9.508,9.508,0,0,0-4.372,4.818Zm.179,20.13a1.674,1.674,0,0,0-1.177.457,1.562,1.562,0,0,0-.489,1.131v.217H73.591v-.217a1.631,1.631,0,0,0-1.681-1.589Zm4.9-.747v-.934h-.515V34.7Zm.516-26.643A12.525,12.525,0,0,1,80.832,20.352,12.525,12.525,0,0,1,68.118,32.647h-1.74v.373h1.74A12.872,12.872,0,0,0,81.18,20.384,12.873,12.873,0,0,0,68.118,7.747h-1.74v.311Zm4.911,7.622a13.909,13.909,0,0,1,.766,4.329h3.82a9.684,9.684,0,0,0-2.379-6A10.832,10.832,0,0,1,73.029,15.681Zm1.689-2.237a10.418,10.418,0,0,0-5.436-2.86,10.267,10.267,0,0,1,3.469,4.382,10.058,10.058,0,0,0,1.967-1.523Zm-.923,7.314a13.859,13.859,0,0,1-.766,4.322,10.832,10.832,0,0,1,2.206,1.673,9.808,9.808,0,0,0,2.379-5.995Zm-1.044,5.024a10.267,10.267,0,0,1-3.469,4.382,10.418,10.418,0,0,0,5.436-2.86A10.058,10.058,0,0,0,72.751,25.781Zm-.7-.37a10.708,10.708,0,0,0-4.38-1.1v5.938A9.267,9.267,0,0,0,72.046,25.411Zm.281-.7a13.105,13.105,0,0,0,.7-3.953H67.666v2.8A11.421,11.421,0,0,1,72.327,24.71Zm.7-4.7a13.173,13.173,0,0,0-.7-3.963,11.413,11.413,0,0,1-4.661,1.139V20.01Zm-.976-4.675a9.268,9.268,0,0,0-4.38-4.835v5.938a10.707,10.707,0,0,0,4.38-1.1Zm6.325,5.038a10.873,10.873,0,0,1-10.7,10.714V31.9h.452A11.764,11.764,0,0,0,80.059,20.352,11.764,11.764,0,0,0,68.118,8.805h-.452v.854a10.873,10.873,0,0,1,10.7,10.714ZM66.894,24.309a10.545,10.545,0,0,0-4.372,1.12,9.51,9.51,0,0,0,4.372,4.818Zm-1.566,5.855a10.262,10.262,0,0,1-3.46-4.36,10.093,10.093,0,0,0-1.95,1.527A10.419,10.419,0,0,0,65.327,30.163ZM59.4,26.783A10.886,10.886,0,0,1,61.588,25.1a13.876,13.876,0,0,1-.773-4.341h-3.82A9.7,9.7,0,0,0,59.4,26.783Zm-2.4-6.773h3.82a13.942,13.942,0,0,1,.773-4.351,10.862,10.862,0,0,1-2.189-1.68A9.717,9.717,0,0,0,56.994,20.01Z" transform="translate(-56.189 -7)" fill="#061358"/>
</svg>
