<svg xmlns="http://www.w3.org/2000/svg" width="40.739" height="31.54" viewBox="0 0 40.739 31.54">
  <path id="education" d="M41.391,18.591,21.679,8.078a.656.656,0,0,0-.618,0L1.348,18.591a.657.657,0,0,0,0,1.159l5.566,2.969V31H8.228V23.42L10.2,24.471v3.992a2.6,2.6,0,0,0-1.421,4.126,13.421,13.421,0,0,0-.551,3.772v1.865a.658.658,0,0,0,.363.588l.726.363a3.443,3.443,0,0,0,3.078,0l.726-.363a.656.656,0,0,0,.363-.587V36.361a13.421,13.421,0,0,0-.551-3.772,2.6,2.6,0,0,0-1.421-4.126V25.172l9.547,5.092a.661.661,0,0,0,.619,0L34.511,23.42v7.254A21.282,21.282,0,0,1,21.763,34.94h-.787a21.144,21.144,0,0,1-6.629-1.064l-.411,1.248a22.456,22.456,0,0,0,7.039,1.13h.787a22.6,22.6,0,0,0,13.809-4.738A.657.657,0,0,0,35.825,31V22.719l5.566-2.969a.657.657,0,0,0,0-1.159ZM12.17,37.82,11.807,38a2.163,2.163,0,0,1-1.9,0l-.363-.181V36.361A12.108,12.108,0,0,1,9.9,33.44a2.546,2.546,0,0,0,1.913,0,12.108,12.108,0,0,1,.357,2.921Zm0-6.822a1.314,1.314,0,1,1-1.314-1.314A1.315,1.315,0,0,1,12.17,31Zm9.2-2.059-9.4-5.016,8.141-4.341a3.338,3.338,0,0,0,1.264.246c1.474,0,2.628-.866,2.628-1.971s-1.154-1.971-2.628-1.971-2.628.866-2.628,1.971a1.593,1.593,0,0,0,.245.833l-8.417,4.489L3.053,19.17,21.37,9.4,39.686,19.17ZM20.055,17.856c0-.268.512-.657,1.314-.657s1.314.389,1.314.657-.512.657-1.314.657S20.055,18.124,20.055,17.856Z" transform="translate(-1 -8)" fill="#061358"/>
</svg>
