<svg xmlns="http://www.w3.org/2000/svg" width="98" height="97" viewBox="0 0 98 97">
  <g id="Group_2045" data-name="Group 2045" transform="translate(-5981 -2238)">
    <g id="Group_2044" data-name="Group 2044">
      <rect id="Rectangle_1266" data-name="Rectangle 1266" width="98" height="97" rx="48.5" transform="translate(5981 2238)" fill="#e60c0c"/>
      <g id="call" transform="translate(6054.328 2286.164) rotate(135)">
        <g id="Group_2042" data-name="Group 2042">
          <path id="Path_4630" data-name="Path 4630" d="M31.431,22.431a19.4,19.4,0,0,1-6.093-.971,2.785,2.785,0,0,0-2.709.571l-3.842,2.9a21.235,21.235,0,0,1-9.547-9.545l2.815-3.742a2.762,2.762,0,0,0,.679-2.8,19.432,19.432,0,0,1-.974-6.1A2.745,2.745,0,0,0,9.018,0H2.742A2.745,2.745,0,0,0,0,2.742,31.466,31.466,0,0,0,31.431,34.173a2.745,2.745,0,0,0,2.742-2.742V25.173A2.745,2.745,0,0,0,31.431,22.431Z" fill="#fff"/>
        </g>
      </g>
    </g>
  </g>
</svg>
