<svg xmlns="http://www.w3.org/2000/svg" width="21.905" height="18.212" viewBox="0 0 21.905 18.212">
  <path id="envelope" d="M19.851,59.882H2.054A2.176,2.176,0,0,0,0,62.158V75.817a2.176,2.176,0,0,0,2.054,2.276h17.8A2.176,2.176,0,0,0,21.9,75.817V62.158A2.176,2.176,0,0,0,19.851,59.882Zm0,1.518a.623.623,0,0,1,.262.059l-9.161,8.8-9.161-8.8a.624.624,0,0,1,.262-.059Zm0,15.177H2.054a.725.725,0,0,1-.685-.759V63.062L10.5,71.838a.636.636,0,0,0,.9,0l9.135-8.776V75.817A.725.725,0,0,1,19.851,76.576Z" transform="translate(0 -59.882)" fill="#a2aebc"/>
</svg>
