<svg xmlns="http://www.w3.org/2000/svg" width="24.419" height="15.956" viewBox="0 0 24.419 15.956">
  <g id="Сгруппировать_1825" data-name="Сгруппировать 1825" transform="translate(4557 -1702)">
    <path id="Контур_1" data-name="Контур 1" d="M12.21,161.525a13.406,13.406,0,0,0-12.16,7.757.523.523,0,0,0,0,.443,13.41,13.41,0,0,0,24.321,0,.523.523,0,0,0,0-.443A13.406,13.406,0,0,0,12.21,161.525Zm0,13.483a5.5,5.5,0,1,1,5.5-5.5A5.5,5.5,0,0,1,12.21,175.008Z" transform="translate(-4557 1540.475)" fill="#a2aebc"/>
    <circle id="Эллипс_1" data-name="Эллипс 1" cx="3.523" cy="3.523" r="3.523" transform="translate(-4548 1706)" fill="#a2aebc"/>
  </g>
</svg>
