<svg id="favorite" xmlns="http://www.w3.org/2000/svg" width="17.738" height="20.764" viewBox="0 0 17.738 20.764">
  <path id="Контур_679" data-name="Контур 679" d="M108.224,94.794l1.441,1.324a.305.305,0,0,1,.1.282l-.34,1.869a1.579,1.579,0,0,0,1.587,1.828c.5,0,.615-.112,2.523-1.057a.455.455,0,0,1,.4,0l1.782.882a1.6,1.6,0,0,0,2.328-1.653L117.7,96.4a.305.305,0,0,1,.1-.282l1.441-1.324a1.542,1.542,0,0,0-.886-2.667l-1.992-.273a.4.4,0,0,1-.3-.2l-.891-1.7a1.643,1.643,0,0,0-2.882,0l-.891,1.7a.4.4,0,0,1-.3.2l-1.992.273A1.542,1.542,0,0,0,108.224,94.794Zm1.051-1.462,1.992-.273a1.613,1.613,0,0,0,1.214-.839l.891-1.7a.427.427,0,0,1,.727,0l.891,1.7a1.613,1.613,0,0,0,1.214.839l1.992.273c.307.042.451.361.229.566l-1.441,1.324a1.519,1.519,0,0,0-.476,1.4l.34,1.869c.05.274-.3.491-.591.345l-1.782-.882a1.673,1.673,0,0,0-1.476,0l-1.782.882c-.288.143-.642-.065-.591-.345l.34-1.869a1.519,1.519,0,0,0-.476-1.4L109.046,93.9C108.824,93.693,108.968,93.374,109.275,93.332Z" transform="translate(-104.866 -85.488)" fill="#061358"/>
  <path id="Контур_680" data-name="Контур 680" d="M54.029,0H38.319A1.015,1.015,0,0,0,37.3,1.014V19.343a1.419,1.419,0,0,0,1.986,1.3l6.8-2.959a.2.2,0,0,1,.162,0l6.8,2.959a1.42,1.42,0,0,0,1.986-1.3V1.014A1.015,1.015,0,0,0,54.029,0Zm-.2,19.343a.2.2,0,0,1-.284.186l-6.8-2.959a1.424,1.424,0,0,0-1.132,0l-6.8,2.959a.2.2,0,0,1-.284-.186V1.217h15.3V19.343Z" transform="translate(-37.305 0)" fill="#061358"/>
</svg>
