<svg xmlns="http://www.w3.org/2000/svg" width="23.018" height="23.018" viewBox="0 0 23.018 23.018">
  <g id="hide_1_" data-name="hide (1)" transform="translate(0 0)">
    <g id="Сгруппировать_161" data-name="Сгруппировать 161" transform="translate(0 0)">
      <g id="Сгруппировать_160" data-name="Сгруппировать 160" transform="translate(0 0)">
        <path id="Контур_15" data-name="Контур 15" d="M22.877,21.521,1.5.141a.48.48,0,0,0-.678,0L.14.819a.479.479,0,0,0,0,.678L4.106,5.462a12.324,12.324,0,0,0-4.083,5.9.482.482,0,0,0,0,.293,12.085,12.085,0,0,0,11.486,8.485,11.851,11.851,0,0,0,5.779-1.5l4.233,4.233a.48.48,0,0,0,.678,0l.678-.678A.479.479,0,0,0,22.877,21.521Zm-11.368-3.3A6.7,6.7,0,0,1,6.137,7.494L8.222,9.579a3.757,3.757,0,0,0-.55,1.93,3.841,3.841,0,0,0,3.836,3.836,3.758,3.758,0,0,0,1.93-.55l2.085,2.085A6.7,6.7,0,0,1,11.509,18.223Z" transform="translate(0 0)" fill="#a2aebc"/>
        <path id="Контур_16" data-name="Контур 16" d="M246.2,171.044a.48.48,0,0,0,.1.525l3.316,3.316a.479.479,0,0,0,.819-.345,3.809,3.809,0,0,0-3.789-3.789A.523.523,0,0,0,246.2,171.044Z" transform="translate(-235.1 -163.074)" fill="#a2aebc"/>
        <path id="Контур_17" data-name="Контур 17" d="M156.728,66.484a.48.48,0,0,0,.546.094,6.642,6.642,0,0,1,2.888-.661,6.721,6.721,0,0,1,6.713,6.713,6.642,6.642,0,0,1-.661,2.888.48.48,0,0,0,.094.546l1.662,1.662a.479.479,0,0,0,.339.14h0a.482.482,0,0,0,.34-.142,12.5,12.5,0,0,0,3-4.948.482.482,0,0,0,0-.293A12.085,12.085,0,0,0,160.163,64a11.943,11.943,0,0,0-4.2.761.479.479,0,0,0-.171.788Z" transform="translate(-148.654 -61.122)" fill="#a2aebc"/>
      </g>
    </g>
  </g>
</svg>
