<svg xmlns="http://www.w3.org/2000/svg" width="31.253" height="23.525" viewBox="0 0 31.253 23.525">
  <g id="list" transform="translate(0 -7.434)">
    <path id="Контур_4617" data-name="Контур 4617" d="M36.378,49.012h-20.9a1.559,1.559,0,1,1,0-3.119h20.9a1.559,1.559,0,0,1,0,3.119Z" transform="translate(-6.684 -18.468)" fill="#061358"/>
    <path id="Контур_4618" data-name="Контур 4618" d="M36.378,30.181h-20.9a1.559,1.559,0,1,1,0-3.119h20.9a1.559,1.559,0,0,1,0,3.119Z" transform="translate(-6.684 -9.425)" fill="#061358"/>
    <path id="Контур_4619" data-name="Контур 4619" d="M36.378,11.35h-20.9a1.559,1.559,0,1,1,0-3.119h20.9a1.559,1.559,0,0,1,0,3.119Z" transform="translate(-6.684 -0.383)" fill="#061358"/>
    <circle id="Эллипс_243" data-name="Эллипс 243" cx="2.094" cy="2.094" r="2.094" transform="translate(0 7.434)" fill="#061358"/>
    <circle id="Эллипс_244" data-name="Эллипс 244" cx="2.094" cy="2.094" r="2.094" transform="translate(0 17.102)" fill="#061358"/>
    <circle id="Эллипс_245" data-name="Эллипс 245" cx="2.094" cy="2.094" r="2.094" transform="translate(0 26.77)" fill="#061358"/>
  </g>
</svg>
