<svg xmlns="http://www.w3.org/2000/svg" width="16.123" height="18.212" viewBox="0 0 16.123 18.212">
  <path id="Контур_4532" data-name="Контур 4532" d="M79.785,7.745V4.861a4.437,4.437,0,0,0-1.773-3.475A6.468,6.468,0,0,0,73.93,0h-.076c-3.266,0-5.921,2.181-5.921,4.861V7.745A2.159,2.159,0,0,0,65.8,9.726V16.2a2.251,2.251,0,0,0,2.432,2.008H79.491A2.251,2.251,0,0,0,81.923,16.2V9.726A2.17,2.17,0,0,0,79.785,7.745ZM68.877,4.861h0c0-2.255,2.233-4.1,4.978-4.1h0a5.534,5.534,0,0,1,3.48,1.166,3.747,3.747,0,0,1,1.489,2.934V7.749H77.789V4.861a2.98,2.98,0,0,0-1.18-2.336,4.326,4.326,0,0,0-2.716-.919h-.028c-2.181,0-3.944,1.459-3.944,3.251V7.749H68.877Zm7.969,0V7.749H70.873V4.861a2.773,2.773,0,0,1,3-2.479H73.9a3.273,3.273,0,0,1,2.053.695A2.277,2.277,0,0,1,76.846,4.861Zm4.172,11.355h0a1.385,1.385,0,0,1-1.5,1.224H68.251a1.385,1.385,0,0,1-1.5-1.224V9.745a1.385,1.385,0,0,1,1.5-1.224H79.515a1.385,1.385,0,0,1,1.5,1.224Z" transform="translate(-65.8)" fill="#a2aebc"/>
</svg>
