<svg xmlns="http://www.w3.org/2000/svg" width="26" height="26" viewBox="0 0 26 26">
  <g id="Сгруппировать_1983" data-name="Сгруппировать 1983" transform="translate(-165 -491)">
    <g id="info" transform="translate(143.665 497.348)">
      <path id="Контур_4586" data-name="Контур 4586" d="M36.66,11.491l-.18.736q-.81.32-1.292.487a3.409,3.409,0,0,1-1.121.168,2.238,2.238,0,0,1-1.525-.478A1.548,1.548,0,0,1,32,11.189a4.3,4.3,0,0,1,.041-.585q.041-.3.131-.675l.675-2.388q.09-.343.152-.65a2.826,2.826,0,0,0,.061-.56.866.866,0,0,0-.189-.638,1.067,1.067,0,0,0-.722-.18,1.891,1.891,0,0,0-.536.082c-.184.054-.34.107-.472.155l.18-.736q.663-.27,1.269-.462a3.8,3.8,0,0,1,1.147-.192,2.183,2.183,0,0,1,1.5.471,1.562,1.562,0,0,1,.528,1.223c0,.1-.012.287-.036.548a3.666,3.666,0,0,1-.135.72L34.922,9.7a6.319,6.319,0,0,0-.148.655,3.373,3.373,0,0,0-.066.556.8.8,0,0,0,.212.646,1.2,1.2,0,0,0,.735.172,2.123,2.123,0,0,0,.556-.086A3.108,3.108,0,0,0,36.66,11.491Zm.17-9.987a1.392,1.392,0,0,1-.47,1.059A1.6,1.6,0,0,1,35.229,3a1.618,1.618,0,0,1-1.138-.438A1.389,1.389,0,0,1,33.617,1.5,1.4,1.4,0,0,1,34.091.441a1.679,1.679,0,0,1,2.269,0A1.405,1.405,0,0,1,36.831,1.5Z" fill="#061358"/>
    </g>
    <g id="Эллипс_237" data-name="Эллипс 237" transform="translate(165 491)" fill="none" stroke="#061358" stroke-width="1">
      <circle cx="13" cy="13" r="13" stroke="none"/>
      <circle cx="13" cy="13" r="12.5" fill="none"/>
    </g>
  </g>
</svg>
