<svg id="Сгруппировать_1939" data-name="Сгруппировать 1939" xmlns="http://www.w3.org/2000/svg" width="26.667" height="17.778" viewBox="0 0 26.667 17.778">
  <path id="Контур_4581" data-name="Контур 4581" d="M25.3,85.333H1.368A1.372,1.372,0,0,0,0,86.7v15.043a1.372,1.372,0,0,0,1.368,1.368H25.3a1.372,1.372,0,0,0,1.368-1.368V86.7A1.372,1.372,0,0,0,25.3,85.333Zm-.513,1.026-10.666,8a1.43,1.43,0,0,1-1.573,0l-10.666-8Zm-5.7,8.528,5.812,7.18c.006.007.013.013.019.019H1.747c.006-.007.013-.012.019-.019l5.812-7.18a.513.513,0,0,0-.8-.646l-5.755,7.109V87l10.906,8.18a2.448,2.448,0,0,0,2.8,0L25.641,87v14.351l-5.755-7.109a.513.513,0,0,0-.8.646Z" transform="translate(0 -85.333)" fill="#061358"/>
</svg>
