<svg xmlns="http://www.w3.org/2000/svg" xmlns:xlink="http://www.w3.org/1999/xlink" width="76" height="76" viewBox="0 0 76 76">
  <defs>
    <filter id="Path_4676" x="0" y="0" width="76" height="76" filterUnits="userSpaceOnUse">
      <feOffset input="SourceAlpha"/>
      <feGaussianBlur stdDeviation="3" result="blur"/>
      <feFlood flood-opacity="0.651"/>
      <feComposite operator="in" in2="blur"/>
      <feComposite in="SourceGraphic"/>
    </filter>
  </defs>
  <g id="Group_2162" data-name="Group 2162" transform="translate(-678 -652)">
    <g transform="matrix(1, 0, 0, 1, 678, 652)" filter="url(#Path_4676)">
      <path id="Path_4676-2" data-name="Path 4676" d="M29,0A29,29,0,1,1,0,29,29,29,0,0,1,29,0Z" transform="translate(9 9)" fill="#e8e8e9" opacity="0.3"/>
    </g>
    <g id="microphone" transform="translate(703 671)">
      <path id="Path_4634" data-name="Path 4634" d="M178.061,86.092A7.069,7.069,0,0,1,171,79.03V69.061a7.061,7.061,0,1,1,14.123,0V79.03A7.069,7.069,0,0,1,178.061,86.092Z" transform="translate(-165.185 -62)" fill="#fff"/>
      <g id="Group_2050" data-name="Group 2050" transform="translate(0 10.8)">
        <path id="Path_4635" data-name="Path 4635" d="M125.507,192H123.43v2.492h.831v3.738a10.384,10.384,0,0,1-20.769,0v-3.738h.831V192h-2.077A1.246,1.246,0,0,0,101,193.246v4.985a12.877,12.877,0,0,0,25.753,0v-4.985A1.246,1.246,0,0,0,125.507,192Z" transform="translate(-101 -192)" fill="#fff"/>
      </g>
      <path id="Path_4636" data-name="Path 4636" d="M198.469,453.933h-3.115V451.39q-.617.05-1.246.051t-1.246-.051v2.543h-3.115a1.246,1.246,0,1,0,0,2.492h8.723a1.246,1.246,0,1,0,0-2.492Z" transform="translate(-181.231 -419.041)" fill="#fff"/>
    </g>
  </g>
</svg>
