<svg id="Сгруппировать_1459" data-name="Сгруппировать 1459" xmlns="http://www.w3.org/2000/svg" width="22.914" height="22.914" viewBox="0 0 22.914 22.914">
  <path id="Контур_668" data-name="Контур 668" d="M8.324,0H1.746A1.746,1.746,0,0,0,0,1.745V8.323a1.746,1.746,0,0,0,1.745,1.745H8.324a1.746,1.746,0,0,0,1.745-1.745V1.745A1.747,1.747,0,0,0,8.324,0Z" transform="translate(-0.001)" fill="#061358"/>
  <path id="Контур_669" data-name="Контур 669" d="M174.829,0h-6.579a1.746,1.746,0,0,0-1.745,1.745V8.323a1.746,1.746,0,0,0,1.745,1.745h6.579a1.746,1.746,0,0,0,1.745-1.745V1.745A1.746,1.746,0,0,0,174.829,0Z" transform="translate(-153.66)" fill="#061358"/>
  <path id="Контур_670" data-name="Контур 670" d="M8.324,166.507H1.746A1.746,1.746,0,0,0,0,168.251v6.579a1.746,1.746,0,0,0,1.745,1.745H8.324a1.746,1.746,0,0,0,1.745-1.745v-6.579A1.747,1.747,0,0,0,8.324,166.507Z" transform="translate(-0.001 -153.661)" fill="#061358"/>
  <path id="Контур_671" data-name="Контур 671" d="M174.829,166.507h-6.579a1.746,1.746,0,0,0-1.745,1.745v6.579a1.746,1.746,0,0,0,1.745,1.745h6.579a1.747,1.747,0,0,0,1.745-1.745v-6.579A1.746,1.746,0,0,0,174.829,166.507Z" transform="translate(-153.66 -153.661)" fill="#061358"/>
</svg>
