<svg id="paperclip" xmlns="http://www.w3.org/2000/svg" width="10.635" height="11.944" viewBox="0 0 10.635 11.944">
  <g id="Сгруппировать_1533" data-name="Сгруппировать 1533" transform="translate(0 0)">
    <path id="Контур_811" data-name="Контур 811" d="M37.807.87A2.978,2.978,0,0,0,33.6.87L29.169,5.3a.35.35,0,0,0,.495.495l4.43-4.43a2.33,2.33,0,0,1,3.218,0,2.278,2.278,0,0,1,0,3.217l-6.186,6.256a1.433,1.433,0,0,1-1.98,0,1.4,1.4,0,0,1,0-1.98L35.084,2.85a.538.538,0,0,1,.742,0,.526.526,0,0,1,0,.743L30.136,9.353a.39.39,0,0,0,0,.495.35.35,0,0,0,.495,0l5.691-5.761a1.226,1.226,0,0,0,0-1.733,1.255,1.255,0,0,0-1.732,0L28.651,8.363a2.114,2.114,0,0,0,0,2.97,2.111,2.111,0,0,0,2.97,0l6.186-6.256A2.978,2.978,0,0,0,37.807.87Z" transform="translate(-28.042 0)" fill="#646464"/>
  </g>
</svg>
