<svg xmlns="http://www.w3.org/2000/svg" width="20.117" height="20.194" viewBox="0 0 20.117 20.194">
  <path id="Контур_4543" data-name="Контур 4543" d="M4.988,13.423a21.423,21.423,0,0,0,7.126,5.582,11.091,11.091,0,0,0,3.988,1.18c.1,0,.188.008.285.008a3.3,3.3,0,0,0,2.561-1.1.091.091,0,0,0,.017-.021,10.782,10.782,0,0,1,.808-.837c.2-.188.4-.385.59-.586a2.02,2.02,0,0,0-.008-3.009l-2.515-2.515a2.035,2.035,0,0,0-1.473-.678,2.1,2.1,0,0,0-1.49.674l-1.5,1.5c-.138-.08-.28-.151-.414-.218a5.174,5.174,0,0,1-.46-.251A15.854,15.854,0,0,1,8.716,9.7a9.13,9.13,0,0,1-1.28-2.042c.393-.356.762-.728,1.117-1.092.126-.13.255-.259.385-.389a2.145,2.145,0,0,0,.695-1.506,2.128,2.128,0,0,0-.695-1.506L7.691,1.921c-.146-.146-.285-.289-.427-.435C6.988,1.2,6.7.908,6.415.644A2.086,2.086,0,0,0,4.942,0a2.148,2.148,0,0,0-1.49.649L1.888,2.213A3.215,3.215,0,0,0,.929,4.272,7.744,7.744,0,0,0,1.511,7.62,19.474,19.474,0,0,0,4.988,13.423ZM1.95,4.36a2.213,2.213,0,0,1,.665-1.423L4.172,1.381a1.127,1.127,0,0,1,.77-.356,1.069,1.069,0,0,1,.753.364c.28.259.544.531.828.82.142.146.289.293.435.444L8.206,3.9a1.136,1.136,0,0,1,.393.782,1.136,1.136,0,0,1-.393.782c-.13.13-.259.264-.389.393-.389.393-.753.766-1.155,1.121L6.641,7a.818.818,0,0,0-.209.929c0,.013.008.021.013.033a9.848,9.848,0,0,0,1.469,2.389,16.733,16.733,0,0,0,4.034,3.674,5.989,5.989,0,0,0,.552.3,5.174,5.174,0,0,1,.46.251l.046.025a.875.875,0,0,0,.406.1.887.887,0,0,0,.623-.285L15.6,12.858a1.107,1.107,0,0,1,.766-.372,1.051,1.051,0,0,1,.741.372l2.523,2.519a1.009,1.009,0,0,1-.013,1.577c-.176.188-.36.368-.557.557a12.05,12.05,0,0,0-.875.908,2.3,2.3,0,0,1-1.8.762c-.071,0-.146,0-.218-.008a10.076,10.076,0,0,1-3.607-1.08,20.352,20.352,0,0,1-6.783-5.314,18.64,18.64,0,0,1-3.306-5.5A6.749,6.749,0,0,1,1.95,4.36Z" transform="translate(-0.912)" fill="#a2aebc"/>
</svg>
