<svg xmlns="http://www.w3.org/2000/svg" width="31" height="31" viewBox="0 0 31 31">
  <g id="phone-call" transform="translate(0.001)">
    <g id="Сгруппировать_2014" data-name="Сгруппировать 2014" transform="translate(-0.001)">
      <g id="Сгруппировать_2013" data-name="Сгруппировать 2013" transform="translate(0)">
        <path id="Контур_4614" data-name="Контур 4614" d="M26.209,4.405a15.693,15.693,0,0,0-21.8,0,15.693,15.693,0,0,0,22.19,22.19A15.693,15.693,0,0,0,26.209,4.405Zm-.352,21.452-.005-.005a6.065,6.065,0,1,1,.005.005Z" transform="translate(0.001 0)" fill="#061358"/>
      </g>
    </g>
    <g id="Сгруппировать_2016" data-name="Сгруппировать 2016" transform="translate(6.444 6.537)">
      <g id="Сгруппировать_2015" data-name="Сгруппировать 2015">
        <path id="Контур_4615" data-name="Контур 4615" d="M118.326,115.555l-2.854-2.844a1.661,1.661,0,0,0-2.349,0l0,0-1.635,1.635a.361.361,0,0,1-.462.041,18.851,18.851,0,0,1-4.4-4.322.356.356,0,0,1,.036-.462l1.676-1.676a1.661,1.661,0,0,0,0-2.347l-2.854-2.854a1.7,1.7,0,0,0-2.352,0l-.9.9a5.079,5.079,0,0,0-1.26,5.181,15.237,15.237,0,0,0,1.859,3.769,19.756,19.756,0,0,0,5.7,5.6,14.54,14.54,0,0,0,4.226,1.879,4.892,4.892,0,0,0,1.178.142,5.14,5.14,0,0,0,3.621-1.524l.777-.777A1.661,1.661,0,0,0,118.326,115.555Zm-.719,1.654,0,0,.005-.015-.777.777a4.063,4.063,0,0,1-3.835,1.1,13.5,13.5,0,0,1-3.921-1.757,18.778,18.778,0,0,1-5.4-5.3,14.22,14.22,0,0,1-1.737-3.515,4.063,4.063,0,0,1,1.016-4.15l.9-.9a.645.645,0,0,1,.912,0l0,0,2.854,2.854a.645.645,0,0,1,0,.912l0,0-1.676,1.676a1.366,1.366,0,0,0-.142,1.778,20.008,20.008,0,0,0,4.647,4.561,1.376,1.376,0,0,0,1.757-.152l1.62-1.646a.645.645,0,0,1,.912,0l0,0,2.86,2.865A.645.645,0,0,1,117.607,117.208Z" transform="translate(-100.712 -102.253)" fill="#061358"/>
      </g>
    </g>
  </g>
</svg>
