<svg id="policy" xmlns="http://www.w3.org/2000/svg" width="38.713" height="31" viewBox="0 0 38.713 31">
  <path id="Контур_4595" data-name="Контур 4595" d="M4.082,0H29.115a3.728,3.728,0,0,1,3.94,3.456l.161,19.551H38.1a.6.6,0,0,1,.611.579v2.691A5.006,5.006,0,0,1,33.7,30.968V31H12.616v-.036c-.157.006-.252.036-.359.036h-.015c-2.925-.015-5.283-2.13-5.268-4.725V9.175H.61A.6.6,0,0,1,0,8.59V3.653A3.9,3.9,0,0,1,4.082,0ZM33.422,29.888h0a3.849,3.849,0,0,0,4.032-3.612V24.119h-19.9v2.147A4.451,4.451,0,0,1,16,29.606a2.159,2.159,0,0,0-.33.282ZM8.228,26.275a3.833,3.833,0,0,0,4.015,3.613h.013A3.859,3.859,0,0,0,16.3,26.266V23.585a.613.613,0,0,1,.627-.579H31.962L31.8,3.46a2.538,2.538,0,0,0-2.686-2.347H7.042A3.587,3.587,0,0,1,8.228,3.668ZM1.253,3.663v4.4H6.974v-4.4A2.753,2.753,0,0,0,4.1,1.112H4.083A2.705,2.705,0,0,0,1.253,3.659Zm0,0" transform="translate(0.001)" fill="#061358"/>
  <path id="Контур_4596" data-name="Контур 4596" d="M172.1,64.807l-3.232,2.21a.617.617,0,0,1-.7,0l-3.222-2.209A4.869,4.869,0,0,1,163,61.093V56.622a.613.613,0,0,1,.334-.563l4.921-2.421a.616.616,0,0,1,.548,0l4.912,2.414a.612.612,0,0,1,.334.563v4.478A4.869,4.869,0,0,1,172.1,64.807Zm.694-7.8L168.521,54.9l-4.271,2.113v4.081a3.613,3.613,0,0,0,1.4,2.678l2.878,1.969,2.867-1.968a3.611,3.611,0,0,0,1.4-2.678Zm0,0" transform="translate(-148.107 -49.376)" fill="#061358"/>
  <path id="Контур_4597" data-name="Контур 4597" d="M205.108,119.693a.626.626,0,0,1-.444.188h0a.628.628,0,0,1-.443-.185l-2.494-2.495a.627.627,0,1,1,.886-.887l2.049,2.048.819-.827a.627.627,0,1,1,.891.883Zm0,0" transform="translate(-183.633 -108.182)" fill="#061358"/>
  <path id="Контур_4598" data-name="Контур 4598" d="M133.627,248h15.046a.627.627,0,1,1,0,1.254H133.627a.627.627,0,0,1,0-1.254Zm0,0" transform="translate(-121.01 -230.844)" fill="#061358"/>
  <path id="Контур_4599" data-name="Контур 4599" d="M133.627,285h15.046a.627.627,0,1,1,0,1.254H133.627a.627.627,0,1,1,0-1.254Zm0,0" transform="translate(-121.01 -265.285)" fill="#061358"/>
</svg>
