<svg xmlns="http://www.w3.org/2000/svg" xmlns:xlink="http://www.w3.org/1999/xlink" width="42" height="31" viewBox="0 0 42 31">
  <defs>
    <clipPath id="clip-path">
      <rect id="Прямоугольник_1229" data-name="Прямоугольник 1229" width="42" height="31" transform="translate(453.629 842.753)" fill="#7e7e7e"/>
    </clipPath>
  </defs>
  <g id="Группа_масок_1211" data-name="Группа масок 1211" transform="translate(-453.629 -842.753)" clip-path="url(#clip-path)">
    <g id="presentation-whiteboard" transform="translate(455.367 845.355)">
      <path id="Контур_4600" data-name="Контур 4600" d="M301.565,45.1a4.012,4.012,0,1,0-3.582-3.989A3.807,3.807,0,0,0,301.565,45.1Zm0-7.224a3.254,3.254,0,1,1-2.9,3.235A3.087,3.087,0,0,1,301.565,37.873Z" transform="translate(-274.235 -34.03)" fill="#061358"/>
      <path id="Контур_4601" data-name="Контур 4601" d="M373.481,300.8a.36.36,0,0,0-.339.377v2.8a.341.341,0,1,0,.677,0v-2.8A.36.36,0,0,0,373.481,300.8Z" transform="translate(-343.404 -274.306)" fill="#7e7e7e"/>
      <path id="Контур_4602" data-name="Контур 4602" d="M35.46,25.542c.037,0-.034.012,0,0a1.658,1.658,0,0,0,.913.266,1.724,1.724,0,0,0,1.317-.63,2.185,2.185,0,0,0-.072-2.851L36.49,21.135V3.577a1.207,1.207,0,0,0-1.136-1.265H1.674A1.207,1.207,0,0,0,.538,3.577V24.288a1.207,1.207,0,0,0,1.136,1.265h20.89v.976H1.136A1.207,1.207,0,0,0,0,27.793v.9a1.207,1.207,0,0,0,1.136,1.265H22.564V41.973a2.338,2.338,0,0,0,2.2,2.45,2.338,2.338,0,0,0,2.2-2.45V31.8a3.443,3.443,0,0,0,.732,0V41.973a2.213,2.213,0,1,0,4.4,0V29.956h3.795a1.207,1.207,0,0,0,1.136-1.265v-.9a1.207,1.207,0,0,0-1.136-1.265H32.1v-.976ZM32.1,22.057l2.6,2.741H32.1Zm5.1,2.6a1.055,1.055,0,0,1-1.6.051l-3.5-3.693V17.658c0-.04,0-.079,0-.118l5.06,5.335A1.368,1.368,0,0,1,37.2,24.66ZM1.215,24.288V23.3H12.508a.379.379,0,0,0,0-.754H1.215V3.577a.487.487,0,0,1,.458-.51H35.354a.487.487,0,0,1,.458.51V4.708H30.319a.379.379,0,0,0,0,.754h5.493V20.42L31.1,15.446h0a5.784,5.784,0,0,0-3.77-1.718,5.789,5.789,0,0,0-3.939,1.9c-.008.008.008-.009,0,0l-3.655,4.352-2.683-2.789a1.685,1.685,0,0,0-2.56.08A2.137,2.137,0,0,0,14,18.717a2.113,2.113,0,0,0,.568,1.411L18.592,24.3a1.737,1.737,0,0,0,.86.5H1.674A.487.487,0,0,1,1.215,24.288ZM22.564,17.7v3.723l-1.91,2.27a1.056,1.056,0,0,1-1.6.056L15.03,19.578a1.322,1.322,0,0,1-.354-.882,1.338,1.338,0,0,1,.309-.9,1.056,1.056,0,0,1,1.6-.048l2.932,3.048A.315.315,0,0,0,20,20.774Zm-2.359,7.1a1.765,1.765,0,0,0,.942-.587l1.417-1.684V24.8H20.205ZM1.136,29.2a.487.487,0,0,1-.458-.51v-.9a.487.487,0,0,1,.458-.51H22.564V29.2Zm29.28,14.363V34.9a.341.341,0,1,0-.677,0v8.756a1.641,1.641,0,0,1-1.364-1.687v-10.6a.4.4,0,0,0-.121-.289.318.318,0,0,0-.217-.088.311.311,0,0,0-.059.006,3.088,3.088,0,0,1-1.291,0,.314.314,0,0,0-.277.082.4.4,0,0,0-.121.289v10.6a1.637,1.637,0,0,1-1.39,1.688V39.148a.341.341,0,1,0-.677,0v4.407a1.7,1.7,0,0,1-.979-1.582V17.658c0-1.722,2.512-3.174,4.09-3.174s4.09,1.453,4.09,3.174V41.973A1.7,1.7,0,0,1,30.416,43.565Zm5.476-16.283a.487.487,0,0,1,.458.51v.9a.487.487,0,0,1-.458.51H32.1V27.283Z" transform="translate(0 -2.312)" fill="#061358"/>
      <path id="Контур_4603" data-name="Контур 4603" d="M55.911,85.871H70.894a.379.379,0,0,0,0-.754H55.911a.379.379,0,0,0,0,.754Z" transform="translate(-51.143 -77.768)" fill="#061358"/>
      <path id="Контур_4604" data-name="Контур 4604" d="M71.233,125.994a.36.36,0,0,0-.339-.377H55.911a.379.379,0,0,0,0,.754H70.894A.36.36,0,0,0,71.233,125.994Z" transform="translate(-51.143 -114.674)" fill="#061358"/>
      <path id="Контур_4605" data-name="Контур 4605" d="M62.286,166.117H55.911a.379.379,0,0,0,0,.754h6.376a.379.379,0,0,0,0-.754Z" transform="translate(-51.143 -151.579)" fill="#061358"/>
    </g>
  </g>
</svg>
