<svg xmlns="http://www.w3.org/2000/svg" width="17.097" height="19.497" viewBox="0 0 17.097 19.497">
  <g id="Сгруппировать_1676" data-name="Сгруппировать 1676" transform="translate(0 0)">
    <path id="Контур_1043" data-name="Контур 1043" d="M16.078,7.733,2.284.168A1.343,1.343,0,0,0,.571.534,2.624,2.624,0,0,0,.052,2.723L1.28,9.087H7.291a.6.6,0,0,1,.5.662.6.6,0,0,1-.5.662H1.28L.052,16.774a2.624,2.624,0,0,0,.519,2.189,1.343,1.343,0,0,0,1.713.366l13.794-7.565A2.24,2.24,0,0,0,17.1,9.749,2.24,2.24,0,0,0,16.078,7.733Z" fill="#fff"/>
  </g>
</svg>
