<svg xmlns="http://www.w3.org/2000/svg" width="24.538" height="24.539" viewBox="0 0 24.538 24.539">
  <path id="settings_1_" data-name="settings (1)" d="M23.192,9.6,21.27,9.36a9.662,9.662,0,0,0-.582-1.4l1.187-1.529A1.52,1.52,0,0,0,21.75,4.4l-1.61-1.61a1.524,1.524,0,0,0-2.03-.13L16.584,3.851a9.628,9.628,0,0,0-1.406-.582L14.934,1.35A1.531,1.531,0,0,0,13.414,0h-2.29A1.531,1.531,0,0,0,9.6,1.347L9.36,3.269a9.516,9.516,0,0,0-1.406.582L6.427,2.663A1.521,1.521,0,0,0,4.4,2.788L2.793,4.4a1.524,1.524,0,0,0-.13,2.031L3.851,7.956a9.55,9.55,0,0,0-.582,1.4L1.35,9.6A1.531,1.531,0,0,0,0,11.124v2.29a1.531,1.531,0,0,0,1.347,1.519l1.922.244a9.662,9.662,0,0,0,.582,1.4L2.663,18.112a1.52,1.52,0,0,0,.125,2.023l1.61,1.61a1.525,1.525,0,0,0,2.03.129l1.528-1.187a9.44,9.44,0,0,0,1.4.582L9.6,23.187a1.531,1.531,0,0,0,1.519,1.352h2.29a1.531,1.531,0,0,0,1.519-1.347l.244-1.922a9.662,9.662,0,0,0,1.4-.582l1.529,1.187a1.52,1.52,0,0,0,2.023-.125l1.61-1.61a1.523,1.523,0,0,0,.13-2.03l-1.187-1.528a9.439,9.439,0,0,0,.582-1.4l1.918-.244a1.531,1.531,0,0,0,1.35-1.519v-2.29A1.529,1.529,0,0,0,23.192,9.6ZM12.269,17.382a5.112,5.112,0,1,1,5.112-5.112,5.118,5.118,0,0,1-5.112,5.112Z" fill="#061358"/>
</svg>
