<svg xmlns="http://www.w3.org/2000/svg" width="21.402" height="32.568" viewBox="0 0 21.402 32.568">
  <g id="Сгруппировать_1559" data-name="Сгруппировать 1559" transform="translate(0 0)">
    <g id="user_4_" data-name="user (4)" transform="translate(0 11.951)">
      <g id="Сгруппировать_1558" data-name="Сгруппировать 1558" transform="translate(0 0)">
        <g id="Сгруппировать_1557" data-name="Сгруппировать 1557">
          <path id="Контур_822" data-name="Контур 822" d="M10.643,186.567a4.627,4.627,0,1,0-4.833,0A8.191,8.191,0,0,0,0,194.433c0,4.524,3.907,4.062,5.347,4.164h5.707c2.725,0,5.347-.308,5.347-4.164A8.146,8.146,0,0,0,10.643,186.567ZM4.627,182.66a3.6,3.6,0,1,1,3.6,3.6A3.678,3.678,0,0,1,4.627,182.66Zm6.478,14.91H5.4c-1.851-.051-4.319.154-4.319-3.136a7.2,7.2,0,1,1,14.4,0C15.424,197.107,14.087,197.569,11.105,197.569Z" transform="translate(0 -177.981)" fill="#7daf05"/>
        </g>
      </g>
    </g>
    <text id="_" data-name="?" transform="translate(13.402 18)" fill="#7daf05" font-size="18" font-family="SymbolMT, Symbol"><tspan x="0" y="0">?</tspan></text>
  </g>
</svg>
