<svg xmlns="http://www.w3.org/2000/svg" width="20.52" height="28.949" viewBox="0 0 20.52 28.949">
  <g id="Сгруппировать_1467" data-name="Сгруппировать 1467" transform="translate(0)">
    <path id="Контур_678" data-name="Контур 678" d="M91.417,19.121V16.107l-1.272.495,0-.008-.03-.055a3.274,3.274,0,0,0-2.163-1.448l-3.06-.557v-.242a4.672,4.672,0,0,0,2.244-3.139,1.869,1.869,0,0,0,1.487-1.827V4.721a2.925,2.925,0,0,0-2.089-2.806L86.3,1.682a5.743,5.743,0,0,0-9.8,4.061V9.327a1.868,1.868,0,0,0,1.487,1.827,4.672,4.672,0,0,0,2.244,3.139v.242l-3.06.556A3.275,3.275,0,0,0,75,16.537l-.028.068-1.279-.5v3.014a1.4,1.4,0,0,0-1.4,1.4v1.865a1.4,1.4,0,0,0,1.4,1.4V25.5l8.861,3.446L91.417,25.5V23.784a1.4,1.4,0,0,0,1.4-1.4V20.52A1.4,1.4,0,0,0,91.417,19.121Zm-5.655-3.48,2.019.367a2.336,2.336,0,0,1,1.472.94L84.741,18.7ZM81.2,14.72a4.646,4.646,0,0,0,2.719,0L82.556,15.74Zm.65,1.653-.952.951-.617-1.852.3-.054Zm2.692-.954.3.054-.617,1.852-.952-.951ZM87.22,10.13V8.524a.925.925,0,0,1,0,1.606Zm-9.327,0a.925.925,0,0,1,0-1.606Zm0-3.135v.533a1.85,1.85,0,0,0-.466.193V5.742a4.81,4.81,0,0,1,8.211-3.4l.411.412.125.031a1.993,1.993,0,0,1,1.512,1.937v3a1.833,1.833,0,0,0-.466-.193V7H85.741a4.056,4.056,0,0,1-3.23-1.614l-.371-.5-.927.927A4.012,4.012,0,0,1,78.359,7Zm.933,3.265V7.907a4.936,4.936,0,0,0,3.048-1.434l.181-.181a5,5,0,0,0,3.686,1.637h.546V10.26a3.731,3.731,0,1,1-7.462,0Zm-1.494,5.748,2.019-.367,1.02,3.062-4.513-1.755A2.336,2.336,0,0,1,77.331,16.008Zm-4.1,6.377V20.52a.467.467,0,0,1,.466-.466,1.4,1.4,0,0,1,0,2.8A.467.467,0,0,1,73.229,22.385Zm8.861,5.381-7.462-2.9V23.587a2.327,2.327,0,0,0,0-4.268V17.471l7.462,2.9ZM80.7,18.834l1.851-1.851,1.851,1.851-1.851.72Zm9.779,6.031-7.462,2.9V20.373l7.462-2.9v1.848a2.327,2.327,0,0,0,0,4.268Zm1.4-2.479a.467.467,0,0,1-.466.466,1.4,1.4,0,0,1,0-2.8.467.467,0,0,1,.466.466Z" transform="translate(-72.296)" fill="#061358"/>
  </g>
</svg>
