<svg xmlns="http://www.w3.org/2000/svg" width="31.258" height="31" viewBox="0 0 31.258 31">
  <path id="suitcase" d="M29.854,14.591H24.989l-.528-2.9A5.012,5.012,0,0,0,19.735,7.37H11.522A5.012,5.012,0,0,0,6.8,11.695l-.528,2.9H1.4A1.5,1.5,0,0,0,0,16.164V36.8A1.5,1.5,0,0,0,1.4,38.37H29.854a1.5,1.5,0,0,0,1.4-1.574V16.164A1.5,1.5,0,0,0,29.854,14.591ZM7.634,11.885a4.124,4.124,0,0,1,3.888-3.558h8.213a4.124,4.124,0,0,1,3.888,3.558l.494,2.706H23l-.448-2.46a2.982,2.982,0,0,0-2.811-2.573H11.522a2.982,2.982,0,0,0-2.811,2.573l-.448,2.46H7.141Zm14.488,2.706H9.135l.413-2.268a2.093,2.093,0,0,1,1.974-1.806h8.213a2.093,2.093,0,0,1,1.974,1.806ZM.855,16.164a.586.586,0,0,1,.549-.616H29.854a.586.586,0,0,1,.549.616v5.283a4.234,4.234,0,0,1-3.968,4.448H4.823A4.234,4.234,0,0,1,.855,21.447ZM21.688,26.852h2.259v2.792a.326.326,0,0,1-.305.342H21.993a.326.326,0,0,1-.305-.342Zm-14.377,0H9.57v2.792a.326.326,0,0,1-.305.342H7.616a.326.326,0,0,1-.305-.342ZM30.4,36.8a.586.586,0,0,1-.549.616H1.4A.586.586,0,0,1,.855,36.8V24.512a4.7,4.7,0,0,0,3.968,2.34H6.456v2.792a1.238,1.238,0,0,0,1.16,1.3H9.264a1.237,1.237,0,0,0,1.16-1.3V26.852H20.833v2.792a1.238,1.238,0,0,0,1.16,1.3h1.648a1.237,1.237,0,0,0,1.16-1.3V26.852h1.633a4.7,4.7,0,0,0,3.968-2.34Z" transform="translate(0 -7.37)" fill="#061358"/>
</svg>
