<svg xmlns="http://www.w3.org/2000/svg" width="22.258" height="23.909" viewBox="0 0 22.258 23.909">
  <g id="Сгруппировать_1474" data-name="Сгруппировать 1474" transform="translate(0 0)">
    <g id="Сгруппировать_1473" data-name="Сгруппировать 1473" transform="translate(0 0)">
      <path id="Контур_771" data-name="Контур 771" d="M29.53,14h-.344V10.782a1.532,1.532,0,0,0-.617-1.236V9.106A1.134,1.134,0,0,0,27.46,7.952H27.2l.982-1.5a1.133,1.133,0,0,0-.279-1.533L21.241.192A1.02,1.02,0,0,0,20.446.02a1.052,1.052,0,0,0-.679.463L14.014,9.267h-1.6L12.8,5.2a.12.12,0,0,1,.073-.1,2.512,2.512,0,0,0,1.214-1.027.114.114,0,0,1,.109-.053l2.511.258a.331.331,0,0,0,.358-.306.337.337,0,0,0-.294-.372L14.26,3.34a.757.757,0,0,0-.726.365,1.847,1.847,0,0,1-.893.755.792.792,0,0,0-.494.672l-.393,4.136h-.417l.611-6.435a.41.41,0,0,1,.444-.379l5.074.522a.331.331,0,0,0,.358-.306.337.337,0,0,0-.294-.372l-5.074-.522a1.074,1.074,0,0,0-1.159.99L10.8,7.952H9.966A1.134,1.134,0,0,0,8.857,9.106v.3a1.52,1.52,0,0,0-.849,1.376V22.395a1.487,1.487,0,0,0,1.455,1.514H27.731a1.487,1.487,0,0,0,1.455-1.514V19.172h.344a.752.752,0,0,0,.736-.766V14.77A.752.752,0,0,0,29.53,14ZM27.46,8.633h0a.464.464,0,0,1,.455.473V9.28a1.4,1.4,0,0,0-.184-.012H26.341l.415-.634ZM20.308.866a.4.4,0,0,1,.26-.177.4.4,0,0,1,.076-.008.392.392,0,0,1,.228.073l6.665,4.727a.433.433,0,0,1,.107.586l-2.1,3.2h-.5L26.074,7.7a.824.824,0,0,0,.036-.845,1.969,1.969,0,0,1-.219-1.175.81.81,0,0,0-.331-.765L22.1,2.464a.741.741,0,0,0-.805-.041,1.769,1.769,0,0,1-1.131.217.763.763,0,0,0-.743.344L15.309,9.267h-.5Zm.144,5.785a2.749,2.749,0,0,0-2.691,2.616H16.1l3.864-5.9h0a.116.116,0,0,1,.1-.054h.015a2.407,2.407,0,0,0,1.539-.3.112.112,0,0,1,.12.008l3.455,2.45a.122.122,0,0,1,.051.113,2.678,2.678,0,0,0,.3,1.6.125.125,0,0,1-.006.126L24.254,9.267h-1.11A2.749,2.749,0,0,0,20.453,6.652Zm2.035,2.616h-4.07a2.038,2.038,0,0,1,4.07,0ZM9.512,9.106a.465.465,0,0,1,.455-.473h.774l-.06.634H9.512Zm-.849,1.675a.818.818,0,0,1,.8-.833H27.731a.818.818,0,0,1,.8.833v.945H8.663ZM28.531,22.395a.818.818,0,0,1-.8.833H9.463a.818.818,0,0,1-.8-.833v-.945h1.765a.341.341,0,0,0,0-.681H8.663v-8.36H28.531V14H25.418a2.48,2.48,0,0,0-2.234,1.456l0,.009-.01.022a2.632,2.632,0,0,0-.124.329h0a2.672,2.672,0,0,0-.112.767,2.538,2.538,0,0,0,2.483,2.584h3.113v1.6H12.525a.341.341,0,0,0,0,.681H28.531Zm1.08-3.989a.083.083,0,0,1-.081.085H25.418a1.821,1.821,0,0,1-1.607-1q-.021-.04-.04-.082-.039-.083-.069-.171a1.977,1.977,0,0,1,0-1.307q.031-.087.069-.171.019-.042.04-.082a1.821,1.821,0,0,1,1.607-1H29.53a.083.083,0,0,1,.081.085Z" transform="translate(-8.008 0)" fill="#061358"/>
    </g>
  </g>
</svg>
