<svg xmlns="http://www.w3.org/2000/svg" width="19.099" height="19.099" viewBox="0 0 19.099 19.099">
  <g id="Сгруппировать_1841" data-name="Сгруппировать 1841" transform="translate(-733.118 -475)">
    <path id="Контур_4540" data-name="Контур 4540" d="M28.858,37.405a9.55,9.55,0,1,1,9.553-9.551,9.55,9.55,0,0,1-9.553,9.551Zm0-18.019a8.47,8.47,0,1,0,8.473,8.471A8.47,8.47,0,0,0,28.858,19.386Z" transform="translate(713.806 456.694)" fill="#a2aebc"/>
    <path id="Контур_4541" data-name="Контур 4541" d="M37.359,41.882a9.478,9.478,0,0,0-14.376,0l-.819-.7a10.559,10.559,0,0,1,16.014,0Z" transform="translate(712.493 447.857)" fill="#a2aebc"/>
    <path id="Контур_4542" data-name="Контур 4542" d="M34.082,33.664A3.421,3.421,0,1,1,37.5,30.244,3.421,3.421,0,0,1,34.082,33.664Zm0-5.762a2.342,2.342,0,1,0,2.341,2.342A2.342,2.342,0,0,0,34.082,27.9Z" transform="translate(708.583 452.774)" fill="#a2aebc"/>
  </g>
</svg>
