<svg id="wall-clock" xmlns="http://www.w3.org/2000/svg" width="24.58" height="24.58" viewBox="0 0 24.58 24.58">
  <g id="Сгруппировать_1536" data-name="Сгруппировать 1536" transform="translate(0 0)">
    <g id="Сгруппировать_1535" data-name="Сгруппировать 1535">
      <path id="Контур_812" data-name="Контур 812" d="M12.29,0A12.29,12.29,0,1,0,24.58,12.29,12.3,12.3,0,0,0,12.29,0Zm0,23.511A11.221,11.221,0,1,1,23.511,12.29,11.233,11.233,0,0,1,12.29,23.511Z" transform="translate(0 0)" fill="#061358"/>
    </g>
  </g>
  <g id="Сгруппировать_1538" data-name="Сгруппировать 1538" transform="translate(11.755 3.206)">
    <g id="Сгруппировать_1537" data-name="Сгруппировать 1537">
      <path id="Контур_813" data-name="Контур 813" d="M240.388,77.516l-4.653-4.653V64.534a.534.534,0,1,0-1.069,0v8.549a.538.538,0,0,0,.156.378l4.809,4.809a.535.535,0,1,0,.757-.756Z" transform="translate(-234.666 -64)" fill="#061358"/>
    </g>
  </g>
</svg>
