<svg xmlns="http://www.w3.org/2000/svg" width="40.303" height="30.7" viewBox="0 0 40.303 30.7">
  <g id="youtube_3_" data-name="youtube (3)" transform="translate(0 -61)">
    <path id="Контур_4653" data-name="Контур 4653" d="M207.252,172.083l-9.446-5.9a1.181,1.181,0,0,0-1.807,1v11.808a1.181,1.181,0,0,0,1.807,1l9.446-5.9a1.181,1.181,0,0,0,0-2Zm-8.891,4.775v-7.547l6.037,3.773Z" transform="translate(-180.571 -96.735)" fill="#061358"/>
    <path id="Контур_4654" data-name="Контур 4654" d="M34.4,61H5.9A5.91,5.91,0,0,0,0,66.9V85.8a5.91,5.91,0,0,0,5.9,5.9H34.4a5.91,5.91,0,0,0,5.9-5.9V66.9A5.91,5.91,0,0,0,34.4,61Zm3.542,24.8A3.546,3.546,0,0,1,34.4,89.338H5.9A3.546,3.546,0,0,1,2.362,85.8V66.9A3.546,3.546,0,0,1,5.9,63.362H34.4A3.546,3.546,0,0,1,37.942,66.9Z" transform="translate(0 0)" fill="#061358"/>
  </g>
</svg>
